<?xml version="1.0" standalone="no"?>
<!DOCTYPE svg PUBLIC "-//W3C//DTD SVG 1.0//EN" "http://www.w3.org/TR/2001/REC-SVG-20010904/DTD/svg10.dtd">
<svg xmlns="http://www.w3.org/2000/svg" xmlns:xlink="http://www.w3.org/1999/xlink" id="body_1" width="25" height="25">

<g transform="matrix(1.6666667 0 0 1.6666667 0 0)">
	<g transform="matrix(1.5 0 0 1.5 0 0)">
		<g transform="matrix(0.052083336 0 0 0.052083336 3.3333335 3.3333335)">
			<g>
			</g>
			<g>
			</g>
			<g>
				<g>
                    <path d="M48 0L16 0C 13.789 0 12 1.789 12 4L12 4L12 60C 12 62.211 13.789 64 16 64L16 64L48 64C 50.211 64 52 62.211 52 60L52 60L52 4C 52 1.789 50.211 0 48 0zM50 60C 50 61.104 49.104 62 48 62L48 62L16 62C 14.896 62 14 61.104 14 60L14 60L14 52L50 52L50 60zM50 50L14 50L14 10L50 10L50 50zM50 8L14 8L14 4C 14 2.896 14.896 2 16 2L16 2L48 2C 49.104 2 50 2.896 50 4L50 4L50 8z" stroke="none" fill="#231F20" fill-rule="nonzero" />
                    <path d="M32 60C 33.658 60 35 58.658 35 57C 35 55.342 33.658 54 32 54C 30.342 54 29 55.342 29 57C 29 58.658 30.342 60 32 60zM32 56C 32.553 56 33 56.447 33 57C 33 57.553 32.553 58 32 58C 31.446999 58 31 57.553 31 57C 31 56.447 31.447 56 32 56z" stroke="none" fill="#231F20" fill-rule="nonzero" />
                    <path d="M33 4L27 4C 26.447 4 26 4.447 26 5C 26 5.553 26.447 6 27 6L27 6L33 6C 33.553 6 34 5.553 34 5C 34 4.447 33.553 4 33 4z" stroke="none" fill="#231F20" fill-rule="nonzero" />
                    <path d="M38 5C 38 5.2761426 37.90237 5.5118446 37.707108 5.7071066C 37.51185 5.902369 37.276146 6 37 6C 36.723858 6 36.488155 5.902369 36.292892 5.7071066C 36.097633 5.5118446 36 5.2761426 36 5C 36 4.723858 36.097633 4.4881554 36.292892 4.2928934C 36.488155 4.0976315 36.723858 4 37 4C 37.276146 4 37.51185 4.0976315 37.707108 4.2928934C 37.90237 4.4881554 38 4.723858 38 5C 38 5.0116367 37.999798 5.02327 37.99939 5.0348997" stroke="none" fill="#231F20" fill-rule="nonzero" />
				</g>
			</g>
		</g>
	</g>
</g>
</svg>